# xmcd
#
# Track frame offsets: 
#        150
#        10064
#        28192
#        41379
#        51257
#        65807
#        77300
#        88288
#        100917
#        111418
#        125099
#        141741
#
# Disc length: 2093 seconds
#
# Revision: 6
# Processed by: cddbd v1.5.2PL0 Copyright (c) Steve Scherf et al.
# Submitted via: ExactAudioCopyFreeDBPlugin 1.0
#
DISCID=ac082b0c
DTITLE=Vern Gosdin - The Voice
DYEAR=1998
DGENRE=Country
TTITLE0=Back In The Swing Of Things
TTITLE1=Baby That's Cold
TTITLE2=Streets Of Gold
TTITLE3=Chip Off The Chip Off The Old Block
TTITLE4=How Can I Believe In You When You'll Be Leaving Me
TTITLE5=Let's Don't And Say We Did
TTITLE6=Fire In Our Bedroom
TTITLE7=We Must Have Been Out Of Our Minds
TTITLE8=Maybe Then I'll Be Over You
TTITLE9=I Know What It's Like (To Be Alone)
TTITLE10=A Picture Of Me (Without You)
TTITLE11=Would These Arms Be In Your Way
EXTD=
EXTT0=
EXTT1=
EXTT2=
EXTT3=
EXTT4=
EXTT5=
EXTT6=
EXTT7=
EXTT8=
EXTT9=
EXTT10=
EXTT11=
PLAYORDER=
